<?xml version="1.0" encoding="utf-8"?>
<!-- Generator: Adobe Illustrator 21.0.0, SVG Export Plug-In . SVG Version: 6.00 Build 0)  -->
<svg xmlns="http://www.w3.org/2000/svg" xmlns:xlink="http://www.w3.org/1999/xlink" version="1.1" x="0px" y="0px" viewBox="0 0 100 100" style="enable-background:new 0 0 100 100;" xml:space="preserve" width="100px" height="100px">

<g id="bin">
</g>
<g id="full_bin">
</g>
<g id="bookmark">
</g>
<g id="edit">
</g>
<g id="pen">
</g>
<g id="search">
</g>
<g id="plus">
</g>
<g id="multiple">
</g>
<g id="arrow_top">
</g>
<g id="arrow_bottom">
</g>
<g id="minus">
</g>
<g id="synchronize">
</g>
<g id="refresh_1_">
</g>
<g id="left_arrow">
</g>
<g id="scale">
</g>
<g id="right_arrow">
</g>
<g id="expand">
</g>
<g id="play">
</g>
<g id="back">
</g>
<g id="next">
</g>
<g id="upload">
</g>
<g id="download">
</g>
<g id="shared">
</g>
<g id="checked">
</g>
<g id="file">
</g>
<g id="zip_file">
</g>
<g id="document_file">
</g>
<g id="image_file">
</g>
<g id="exel_file">
</g>
<g id="pdf_file">
</g>
<g id="folder">
</g>
<g id="clipboard">
</g>
<g id="adress">
</g>
<g id="news">
</g>
<g id="box">
</g>
<g id="wooden_box">
</g>
<g id="calendar">
	<g>
		<g>
			<path d="M83.434,87.961H17.66c-1.506,0-2.739-1.233-2.739-2.739V23.728c0-4.272,3.495-7.767,7.767-7.767h55.465     c4.272,0,7.767,3.495,7.767,7.767v61.745C85.921,86.841,84.802,87.961,83.434,87.961z" style="fill:#FEFDEF;"/>
			<path d="M83.434,88.961H17.661c-2.062,0-3.739-1.677-3.739-3.739V23.728c0-4.834,3.934-8.767,8.768-8.767h55.465     c4.834,0,8.768,3.933,8.768,8.767v61.746C86.921,87.396,85.357,88.961,83.434,88.961z M22.689,16.961     c-3.731,0-6.768,3.036-6.768,6.767v61.494c0,0.959,0.78,1.739,1.739,1.739h65.773c0.82,0,1.487-0.667,1.487-1.487V23.728     c0-3.731-3.036-6.767-6.768-6.767H22.689z" style="fill:#1F212B;"/>
		</g>
		<path d="M78.065,16.961l-55.068-0.033c-4.152,0-7.076,3.39-7.076,7.533v7.5h58.31h10.69v-7.5    C84.921,20.317,82.216,16.961,78.065,16.961z" style="fill:#F37E98;"/>
		<path d="M79.421,31.961h-2c-0.276,0-0.5-0.224-0.5-0.5s0.224-0.5,0.5-0.5h2c0.276,0,0.5,0.224,0.5,0.5    S79.698,31.961,79.421,31.961z" style="fill:#1F212B;"/>
		<path d="M75.421,31.961h-60c-0.276,0-0.5-0.224-0.5-0.5s0.224-0.5,0.5-0.5h60c0.276,0,0.5,0.224,0.5,0.5    S75.698,31.961,75.421,31.961z" style="fill:#1F212B;"/>
		<g>
			<g>
				<circle cx="24.421" cy="23.461" r="2" style="fill:#FEFDEF;"/>
				<path d="M24.421,25.961c-1.379,0-2.5-1.122-2.5-2.5s1.121-2.5,2.5-2.5s2.5,1.122,2.5,2.5S25.8,25.961,24.421,25.961      z M24.421,21.961c-0.827,0-1.5,0.673-1.5,1.5s0.673,1.5,1.5,1.5s1.5-0.673,1.5-1.5S25.248,21.961,24.421,21.961z" style="fill:#1F212B;"/>
			</g>
			<g>
				<circle cx="76.421" cy="23.461" r="2" style="fill:#FEFDEF;"/>
				<path d="M76.421,25.961c-1.379,0-2.5-1.122-2.5-2.5s1.121-2.5,2.5-2.5s2.5,1.122,2.5,2.5S77.8,25.961,76.421,25.961      z M76.421,21.961c-0.827,0-1.5,0.673-1.5,1.5s0.673,1.5,1.5,1.5s1.5-0.673,1.5-1.5S77.248,21.961,76.421,21.961z" style="fill:#1F212B;"/>
			</g>
		</g>
		<g>
			<path d="M74.921,19.961c-0.553,0-1-0.448-1-1v-6c0-0.552,0.447-1,1-1s1,0.448,1,1v6     C75.921,19.513,75.474,19.961,74.921,19.961z" style="fill:#1F212B;"/>
			<path d="M67.921,19.961c-0.553,0-1-0.448-1-1v-6c0-0.552,0.447-1,1-1s1,0.448,1,1v6     C68.921,19.513,68.474,19.961,67.921,19.961z" style="fill:#1F212B;"/>
			<path d="M60.921,19.961c-0.553,0-1-0.448-1-1v-6c0-0.552,0.447-1,1-1s1,0.448,1,1v6     C61.921,19.513,61.474,19.961,60.921,19.961z" style="fill:#1F212B;"/>
			<path d="M53.921,19.961c-0.553,0-1-0.448-1-1v-6c0-0.552,0.447-1,1-1s1,0.448,1,1v6     C54.921,19.513,54.474,19.961,53.921,19.961z" style="fill:#1F212B;"/>
			<path d="M46.921,19.961c-0.553,0-1-0.448-1-1v-6c0-0.552,0.447-1,1-1s1,0.448,1,1v6     C47.921,19.513,47.474,19.961,46.921,19.961z" style="fill:#1F212B;"/>
			<path d="M39.921,19.961c-0.553,0-1-0.448-1-1v-6c0-0.552,0.447-1,1-1s1,0.448,1,1v6     C40.921,19.513,40.474,19.961,39.921,19.961z" style="fill:#1F212B;"/>
			<path d="M32.921,19.961c-0.553,0-1-0.448-1-1v-6c0-0.552,0.447-1,1-1s1,0.448,1,1v6     C33.921,19.513,33.474,19.961,32.921,19.961z" style="fill:#1F212B;"/>
			<path d="M25.921,19.961c-0.553,0-1-0.448-1-1v-6c0-0.552,0.447-1,1-1s1,0.448,1,1v6     C26.921,19.513,26.474,19.961,25.921,19.961z" style="fill:#1F212B;"/>
		</g>
		<path d="M85.421,31.961h-4c-0.276,0-0.5-0.224-0.5-0.5s0.224-0.5,0.5-0.5h4c0.276,0,0.5,0.224,0.5,0.5    S85.698,31.961,85.421,31.961z" style="fill:#1F212B;"/>
		<g>
			<g>
				<polyline points="36.421,41.461 38.421,41.461 38.421,47.461 32.421,47.461 32.421,44.461     " style="fill:#FEF6AA;"/>
				<path d="M38.421,47.961h-6c-0.276,0-0.5-0.224-0.5-0.5v-3c0-0.276,0.224-0.5,0.5-0.5s0.5,0.224,0.5,0.5v2.5h5v-5      h-1.5c-0.276,0-0.5-0.224-0.5-0.5s0.224-0.5,0.5-0.5h2c0.276,0,0.5,0.224,0.5,0.5v6C38.921,47.737,38.698,47.961,38.421,47.961z      " style="fill:#1F212B;"/>
			</g>
			<g>
				<rect x="42.421" y="41.461" width="6" height="6" style="fill:#FEF6AA;"/>
				<path d="M48.421,47.961h-6c-0.276,0-0.5-0.224-0.5-0.5v-6c0-0.276,0.224-0.5,0.5-0.5h6c0.276,0,0.5,0.224,0.5,0.5v6      C48.921,47.737,48.698,47.961,48.421,47.961z M42.921,46.961h5v-5h-5V46.961z" style="fill:#1F212B;"/>
			</g>
			<g>
				<rect x="52.421" y="41.461" width="6" height="6" style="fill:#FEF6AA;"/>
				<path d="M58.421,47.961h-6c-0.276,0-0.5-0.224-0.5-0.5v-6c0-0.276,0.224-0.5,0.5-0.5h6c0.276,0,0.5,0.224,0.5,0.5v6      C58.921,47.737,58.698,47.961,58.421,47.961z M52.921,46.961h5v-5h-5V46.961z" style="fill:#1F212B;"/>
			</g>
			<g>
				<rect x="62.421" y="41.461" width="6" height="6" style="fill:#FEF6AA;"/>
				<path d="M68.421,47.961h-6c-0.276,0-0.5-0.224-0.5-0.5v-6c0-0.276,0.224-0.5,0.5-0.5h6c0.276,0,0.5,0.224,0.5,0.5v6      C68.921,47.737,68.698,47.961,68.421,47.961z M62.921,46.961h5v-5h-5V46.961z" style="fill:#1F212B;"/>
			</g>
			<g>
				<rect x="72.421" y="41.461" width="6" height="6" style="fill:#FEF6AA;"/>
				<path d="M78.421,47.961h-6c-0.276,0-0.5-0.224-0.5-0.5v-6c0-0.276,0.224-0.5,0.5-0.5h6c0.276,0,0.5,0.224,0.5,0.5v6      C78.921,47.737,78.698,47.961,78.421,47.961z M72.921,46.961h5v-5h-5V46.961z" style="fill:#1F212B;"/>
			</g>
			<g>
				<g>
					<rect x="32.421" y="51.461" width="6" height="6" style="fill:#FEF6AA;"/>
					<path d="M38.421,57.961h-6c-0.276,0-0.5-0.224-0.5-0.5v-6c0-0.276,0.224-0.5,0.5-0.5h6c0.276,0,0.5,0.224,0.5,0.5       v6C38.921,57.737,38.698,57.961,38.421,57.961z M32.921,56.961h5v-5h-5V56.961z" style="fill:#1F212B;"/>
				</g>
				<g>
					<rect x="42.421" y="51.461" width="6" height="6" style="fill:#FEF6AA;"/>
					<path d="M48.421,57.961h-6c-0.276,0-0.5-0.224-0.5-0.5v-6c0-0.276,0.224-0.5,0.5-0.5h6c0.276,0,0.5,0.224,0.5,0.5       v6C48.921,57.737,48.698,57.961,48.421,57.961z M42.921,56.961h5v-5h-5V56.961z" style="fill:#1F212B;"/>
				</g>
				<g>
					<rect x="52.421" y="51.461" width="6" height="6" style="fill:#FEF6AA;"/>
					<path d="M58.421,57.961h-6c-0.276,0-0.5-0.224-0.5-0.5v-6c0-0.276,0.224-0.5,0.5-0.5h6c0.276,0,0.5,0.224,0.5,0.5       v6C58.921,57.737,58.698,57.961,58.421,57.961z M52.921,56.961h5v-5h-5V56.961z" style="fill:#1F212B;"/>
				</g>
				<g>
					<rect x="62.421" y="51.461" width="6" height="6" style="fill:#FEF6AA;"/>
					<path d="M68.421,57.961h-6c-0.276,0-0.5-0.224-0.5-0.5v-6c0-0.276,0.224-0.5,0.5-0.5h6c0.276,0,0.5,0.224,0.5,0.5       v6C68.921,57.737,68.698,57.961,68.421,57.961z M62.921,56.961h5v-5h-5V56.961z" style="fill:#1F212B;"/>
				</g>
				<g>
					<rect x="72.421" y="51.461" width="6" height="6" style="fill:#FEF6AA;"/>
					<path d="M78.421,57.961h-6c-0.276,0-0.5-0.224-0.5-0.5v-6c0-0.276,0.224-0.5,0.5-0.5h6c0.276,0,0.5,0.224,0.5,0.5       v6C78.921,57.737,78.698,57.961,78.421,57.961z M72.921,56.961h5v-5h-5V56.961z" style="fill:#1F212B;"/>
				</g>
				<g>
					<rect x="22.421" y="51.461" width="6" height="6" style="fill:#FEF6AA;"/>
					<path d="M28.421,57.961h-6c-0.276,0-0.5-0.224-0.5-0.5v-6c0-0.276,0.224-0.5,0.5-0.5h6c0.276,0,0.5,0.224,0.5,0.5       v6C28.921,57.737,28.698,57.961,28.421,57.961z M22.921,56.961h5v-5h-5V56.961z" style="fill:#1F212B;"/>
				</g>
			</g>
			<g>
				<g>
					<rect x="32.421" y="61.461" width="6" height="6" style="fill:#FEF6AA;"/>
					<path d="M38.421,67.961h-6c-0.276,0-0.5-0.224-0.5-0.5v-6c0-0.276,0.224-0.5,0.5-0.5h6c0.276,0,0.5,0.224,0.5,0.5       v6C38.921,67.737,38.698,67.961,38.421,67.961z M32.921,66.961h5v-5h-5V66.961z" style="fill:#1F212B;"/>
				</g>
				<g>
					<rect x="42.421" y="61.461" width="6" height="6" style="fill:#FEF6AA;"/>
					<path d="M48.421,67.961h-6c-0.276,0-0.5-0.224-0.5-0.5v-6c0-0.276,0.224-0.5,0.5-0.5h6c0.276,0,0.5,0.224,0.5,0.5       v6C48.921,67.737,48.698,67.961,48.421,67.961z M42.921,66.961h5v-5h-5V66.961z" style="fill:#1F212B;"/>
				</g>
				<g>
					<rect x="52.421" y="61.461" width="6" height="6" style="fill:#FEF6AA;"/>
					<path d="M58.421,67.961h-6c-0.276,0-0.5-0.224-0.5-0.5v-6c0-0.276,0.224-0.5,0.5-0.5h6c0.276,0,0.5,0.224,0.5,0.5       v6C58.921,67.737,58.698,67.961,58.421,67.961z M52.921,66.961h5v-5h-5V66.961z" style="fill:#1F212B;"/>
				</g>
				<g>
					<rect x="62.421" y="61.461" width="6" height="6" style="fill:#FEF6AA;"/>
					<path d="M68.421,67.961h-6c-0.276,0-0.5-0.224-0.5-0.5v-6c0-0.276,0.224-0.5,0.5-0.5h6c0.276,0,0.5,0.224,0.5,0.5       v6C68.921,67.737,68.698,67.961,68.421,67.961z M62.921,66.961h5v-5h-5V66.961z" style="fill:#1F212B;"/>
				</g>
				<g>
					<rect x="72.421" y="61.461" width="6" height="6" style="fill:#FEF6AA;"/>
					<path d="M78.421,67.961h-6c-0.276,0-0.5-0.224-0.5-0.5v-6c0-0.276,0.224-0.5,0.5-0.5h6c0.276,0,0.5,0.224,0.5,0.5       v6C78.921,67.737,78.698,67.961,78.421,67.961z M72.921,66.961h5v-5h-5V66.961z" style="fill:#1F212B;"/>
				</g>
				<g>
					<rect x="22.421" y="61.461" width="6" height="6" style="fill:#FEF6AA;"/>
					<path d="M28.421,67.961h-6c-0.276,0-0.5-0.224-0.5-0.5v-6c0-0.276,0.224-0.5,0.5-0.5h6c0.276,0,0.5,0.224,0.5,0.5       v6C28.921,67.737,28.698,67.961,28.421,67.961z M22.921,66.961h5v-5h-5V66.961z" style="fill:#1F212B;"/>
				</g>
			</g>
			<g>
				<g>
					<rect x="32.421" y="71.461" width="6" height="6" style="fill:#FEF6AA;"/>
					<path d="M38.421,77.961h-6c-0.276,0-0.5-0.224-0.5-0.5v-6c0-0.276,0.224-0.5,0.5-0.5h6c0.276,0,0.5,0.224,0.5,0.5       v6C38.921,77.737,38.698,77.961,38.421,77.961z M32.921,76.961h5v-5h-5V76.961z" style="fill:#1F212B;"/>
				</g>
				<g>
					<rect x="42.421" y="71.461" width="6" height="6" style="fill:#FEF6AA;"/>
					<path d="M48.421,77.961h-6c-0.276,0-0.5-0.224-0.5-0.5v-6c0-0.276,0.224-0.5,0.5-0.5h6c0.276,0,0.5,0.224,0.5,0.5       v6C48.921,77.737,48.698,77.961,48.421,77.961z M42.921,76.961h5v-5h-5V76.961z" style="fill:#1F212B;"/>
				</g>
				<g>
					<polyline points="57.421,77.461 52.421,77.461 52.421,71.461 58.421,71.461 58.421,75.461      " style="fill:#FEF6AA;"/>
					<path d="M57.421,77.961h-5c-0.276,0-0.5-0.224-0.5-0.5v-6c0-0.276,0.224-0.5,0.5-0.5h6c0.276,0,0.5,0.224,0.5,0.5       v4c0,0.276-0.224,0.5-0.5,0.5s-0.5-0.224-0.5-0.5v-3.5h-5v5h4.5c0.276,0,0.5,0.224,0.5,0.5S57.698,77.961,57.421,77.961z" style="fill:#1F212B;"/>
				</g>
				<g>
					<rect x="22.421" y="71.461" width="6" height="6" style="fill:#FEF6AA;"/>
					<path d="M28.421,77.961h-6c-0.276,0-0.5-0.224-0.5-0.5v-6c0-0.276,0.224-0.5,0.5-0.5h6c0.276,0,0.5,0.224,0.5,0.5       v6C28.921,77.737,28.698,77.961,28.421,77.961z M22.921,76.961h5v-5h-5V76.961z" style="fill:#1F212B;"/>
				</g>
			</g>
		</g>
	</g>
</g>
<g id="clock">
</g>
<g id="hourglass">
</g>
<g id="envelope">
</g>
<g id="mail_plane">
</g>
<g id="note">
</g>
<g id="malbox">
</g>
<g id="key">
</g>
<g id="lock_close">
</g>
<g id="lock_open">
</g>
<g id="toolbox">
</g>
<g id="suitcase">
</g>
<g id="Idea">
</g>
<g id="dashboard">
</g>
<g id="home">
</g>
<g id="chat">
</g>
<g id="phone">
</g>
<g id="iphone">
</g>
<g id="monitor">
</g>
<g id="laptop">
</g>
<g id="window">
</g>
<g id="html_window">
</g>
<g id="router">
</g>
<g id="safe">
</g>
<g id="user_male">
</g>
<g id="user_female">
</g>
<g id="camera">
</g>
<g id="compass">
</g>
<g id="star">
</g>
<g id="picture">
</g>
<g id="preferences">
</g>
<g id="settings">
</g>
<g id="options">
</g>
<g id="printer">
</g>
<g id="save">
</g>
<g id="help">
</g>
<g id="marker">
</g>
<g id="map">
</g>
<g id="flag_1_">
</g>
<g id="shop">
</g>
<g id="cart">
</g>
<g id="wallet">
</g>
<g id="cards">
</g>
<g id="price">
</g>
<g id="shopping_bag">
</g>
<g id="dollars">
</g>
<g id="basket">
</g>
<g id="delivery">
</g>
<g id="bill">
</g>
<g id="cash_machine">
</g>
<g id="bill_machine">
</g>
<g id="calculator">
</g>
<g id="purse">
</g>
<g id="geometry">
</g>
<g id="setsquare">
</g>
<g id="coins">
</g>
<g id="cert">
</g>
<g id="goal">
</g>
<g id="lab">
</g>
<g id="cup">
</g>
<g id="money">
</g>
<g id="servers">
</g>
<g id="diamond">
</g>
<g id="mouse">
</g>
</svg>
